<svg id="em2yhqA1Rwv1" xmlns="http://www.w3.org/2000/svg" xmlns:xlink="http://www.w3.org/1999/xlink" viewBox="0 0 1791 323" shape-rendering="geometricPrecision" text-rendering="geometricPrecision">
<style><![CDATA[
#em2yhqA1Rwv15_to {animation: em2yhqA1Rwv15_to__to 2190ms linear infinite normal forwards}@keyframes em2yhqA1Rwv15_to__to { 0% {transform: translate(-49.957993px,270.95px)} 45.6621% {transform: translate(1494px,270.95px)} 100% {transform: translate(1494px,270.95px)}} #em2yhqA1Rwv15_ts {animation: em2yhqA1Rwv15_ts__ts 2190ms linear infinite normal forwards}@keyframes em2yhqA1Rwv15_ts__ts { 0% {transform: scale(1,1)} 44.748858% {transform: scale(1,1)} 45.6621% {transform: scale(0.1,0.1)} 100% {transform: scale(0.1,0.1)}} #em2yhqA1Rwv15 {animation: em2yhqA1Rwv15_c_o 2190ms linear infinite normal forwards}@keyframes em2yhqA1Rwv15_c_o { 0% {opacity: 0} 2.739726% {opacity: 0} 4.56621% {opacity: 1} 100% {opacity: 1}} #em2yhqA1Rwv34_to {animation: em2yhqA1Rwv34_to__to 2190ms linear infinite normal forwards}@keyframes em2yhqA1Rwv34_to__to { 0% {transform: translate(-49.957993px,62.499999px)} 5.479452% {transform: translate(-49.957993px,62.499999px)} 61.643836% {transform: translate(1494px,62.499999px)} 100% {transform: translate(1494px,62.499999px)}} #em2yhqA1Rwv34_ts {animation: em2yhqA1Rwv34_ts__ts 2190ms linear infinite normal forwards}@keyframes em2yhqA1Rwv34_ts__ts { 0% {transform: scale(1,1)} 5.479452% {transform: scale(1,1)} 60.730594% {transform: scale(1,1)} 61.643836% {transform: scale(0.1,0.1)} 100% {transform: scale(0.1,0.1)}} #em2yhqA1Rwv34 {animation: em2yhqA1Rwv34_c_o 2190ms linear infinite normal forwards}@keyframes em2yhqA1Rwv34_c_o { 0% {opacity: 0} 8.675799% {opacity: 0} 10.502283% {opacity: 1} 100% {opacity: 1}} #em2yhqA1Rwv53_to {animation: em2yhqA1Rwv53_to__to 2190ms linear infinite normal forwards}@keyframes em2yhqA1Rwv53_to__to { 0% {transform: translate(-49.957993px,270.95px)} 43.835616% {transform: translate(-49.957993px,270.95px)} 100% {transform: translate(1494px,270.95px)}} #em2yhqA1Rwv53_ts {animation: em2yhqA1Rwv53_ts__ts 2190ms linear infinite normal forwards}@keyframes em2yhqA1Rwv53_ts__ts { 0% {transform: scale(1,1)} 43.835616% {transform: scale(1,1)} 99.086758% {transform: scale(1,1)} 100% {transform: scale(0.1,0.1)}} #em2yhqA1Rwv53 {animation: em2yhqA1Rwv53_c_o 2190ms linear infinite normal forwards}@keyframes em2yhqA1Rwv53_c_o { 0% {opacity: 0} 47.031963% {opacity: 0} 48.858447% {opacity: 1} 100% {opacity: 1}} #em2yhqA1Rwv72_to {animation: em2yhqA1Rwv72_to__to 2190ms linear infinite normal forwards}@keyframes em2yhqA1Rwv72_to__to { 0% {transform: translate(-49.957993px,163.03px)} 29.223744% {transform: translate(-49.957993px,163.03px)} 85.388128% {transform: translate(1494px,163.03px)} 100% {transform: translate(1494px,163.03px)}} #em2yhqA1Rwv72_ts {animation: em2yhqA1Rwv72_ts__ts 2190ms linear infinite normal forwards}@keyframes em2yhqA1Rwv72_ts__ts { 0% {transform: scale(1,1)} 29.223744% {transform: scale(1,1)} 84.474886% {transform: scale(1,1)} 85.388128% {transform: scale(0.1,0.1)} 100% {transform: scale(0.1,0.1)}} #em2yhqA1Rwv72 {animation: em2yhqA1Rwv72_c_o 2190ms linear infinite normal forwards}@keyframes em2yhqA1Rwv72_c_o { 0% {opacity: 0} 32.420091% {opacity: 0} 34.246575% {opacity: 1} 100% {opacity: 1}} #em2yhqA1Rwv91_to {animation: em2yhqA1Rwv91_to__to 2190ms linear infinite normal forwards}@keyframes em2yhqA1Rwv91_to__to { 0% {transform: translate(-49.96px,62.5px)} 39.269406% {transform: translate(-49.96px,62.5px)} 62.100457% {transform: translate(641.957993px,62.5px)} 68.493151% {transform: translate(641.96px,62.5px)} 100% {transform: translate(641.96px,62.5px)}} #em2yhqA1Rwv91_ts {animation: em2yhqA1Rwv91_ts__ts 2190ms linear infinite normal forwards}@keyframes em2yhqA1Rwv91_ts__ts { 0% {transform: scale(1,1)} 39.269406% {transform: scale(1,1)} 63.926941% {transform: scale(1,1)} 68.493151% {transform: scale(1.214149,1.214149)} 73.059361% {transform: scale(0,0)} 100% {transform: scale(0,0)}} #em2yhqA1Rwv91 {animation: em2yhqA1Rwv91_c_o 2190ms linear infinite normal forwards}@keyframes em2yhqA1Rwv91_c_o { 0% {opacity: 0} 42.009132% {opacity: 0} 43.835616% {opacity: 1} 100% {opacity: 1}} #em2yhqA1Rwv110_to {animation: em2yhqA1Rwv110_to__to 2190ms linear infinite normal forwards}@keyframes em2yhqA1Rwv110_to__to { 0% {transform: translate(-49.96px,163.025002px)} 22.83105% {transform: translate(518.013795px,163.025005px)} 29.223744% {transform: translate(555.302362px,163.025005px)} 100% {transform: translate(555.302362px,163.025005px)}} #em2yhqA1Rwv110_ts {animation: em2yhqA1Rwv110_ts__ts 2190ms linear infinite normal forwards}@keyframes em2yhqA1Rwv110_ts__ts { 0% {transform: scale(1,1)} 24.657534% {transform: scale(1,1)} 29.223744% {transform: scale(1.214149,1.214149)} 33.789954% {transform: scale(0,0)} 100% {transform: scale(0,0)}} #em2yhqA1Rwv110 {animation: em2yhqA1Rwv110_c_o 2190ms linear infinite normal forwards}@keyframes em2yhqA1Rwv110_c_o { 0% {opacity: 0} 3.652968% {opacity: 0} 5.479452% {opacity: 1} 100% {opacity: 1}} #em2yhqA1Rwv129_to {animation: em2yhqA1Rwv129_to__to 2190ms linear infinite normal forwards}@keyframes em2yhqA1Rwv129_to__to { 0% {transform: translate(-49.96px,270.95px)} 15.068493% {transform: translate(-49.96px,270.95px)} 37.899543% {transform: translate(518.013795px,270.95px)} 44.292237% {transform: translate(555.302362px,270.95px)} 100% {transform: translate(555.302362px,270.95px)}} #em2yhqA1Rwv129_ts {animation: em2yhqA1Rwv129_ts__ts 2190ms linear infinite normal forwards}@keyframes em2yhqA1Rwv129_ts__ts { 0% {transform: scale(1,1)} 15.068493% {transform: scale(1,1)} 39.726027% {transform: scale(1,1)} 44.292237% {transform: scale(1.214149,1.214149)} 48.858447% {transform: scale(0,0)} 100% {transform: scale(0,0)}} #em2yhqA1Rwv129 {animation: em2yhqA1Rwv129_c_o 2190ms linear infinite normal forwards}@keyframes em2yhqA1Rwv129_c_o { 0% {opacity: 0} 18.721461% {opacity: 0} 20.547945% {opacity: 1} 100% {opacity: 1}} #em2yhqA1Rwv155_ts {animation: em2yhqA1Rwv155_ts__ts 2190ms linear infinite normal forwards}@keyframes em2yhqA1Rwv155_ts__ts { 0% {transform: translate(641.957938px,61.292255px) scale(0.661235,0.661235)} 71.689498% {transform: translate(641.957938px,61.292255px) scale(0.661235,0.661235)} 72.60274% {transform: translate(641.957938px,61.292255px) scale(0.948099,0.948099)} 100% {transform: translate(641.957938px,61.292255px) scale(0.948099,0.948099)}} #em2yhqA1Rwv155 {animation: em2yhqA1Rwv155_c_o 2190ms linear infinite normal forwards}@keyframes em2yhqA1Rwv155_c_o { 0% {opacity: 0} 71.232877% {opacity: 0} 71.689498% {opacity: 1} 72.60274% {opacity: 1} 73.515982% {opacity: 0} 100% {opacity: 0}} #em2yhqA1Rwv156_ts {animation: em2yhqA1Rwv156_ts__ts 2190ms linear infinite normal forwards}@keyframes em2yhqA1Rwv156_ts__ts { 0% {transform: translate(555.302364px,164.527515px) scale(0.661235,0.661235)} 32.420091% {transform: translate(555.302364px,164.527515px) scale(0.661235,0.661235)} 33.333333% {transform: translate(555.302364px,164.527515px) scale(0.948099,0.948099)} 100% {transform: translate(555.302364px,164.527515px) scale(0.948099,0.948099)}} #em2yhqA1Rwv156 {animation: em2yhqA1Rwv156_c_o 2190ms linear infinite normal forwards}@keyframes em2yhqA1Rwv156_c_o { 0% {opacity: 0} 31.96347% {opacity: 0} 32.420091% {opacity: 1} 33.333333% {opacity: 1} 34.246575% {opacity: 0} 100% {opacity: 0}} #em2yhqA1Rwv157_ts {animation: em2yhqA1Rwv157_ts__ts 2190ms linear infinite normal forwards}@keyframes em2yhqA1Rwv157_ts__ts { 0% {transform: translate(555.302349px,270.3575px) scale(0.661235,0.661235)} 47.488584% {transform: translate(555.302349px,270.3575px) scale(0.661235,0.661235)} 48.401826% {transform: translate(555.302349px,270.3575px) scale(0.948099,0.948099)} 100% {transform: translate(555.302349px,270.3575px) scale(0.948099,0.948099)}} #em2yhqA1Rwv157 {animation: em2yhqA1Rwv157_c_o 2190ms linear infinite normal forwards}@keyframes em2yhqA1Rwv157_c_o { 0% {opacity: 0} 47.031963% {opacity: 0} 47.488584% {opacity: 1} 48.401826% {opacity: 1} 49.315068% {opacity: 0} 100% {opacity: 0}}
]]></style>
<g><g><line x1="0" y1="62.5" x2="1489" y2="62.5" fill="none" stroke="#000" stroke-width="5" stroke-dasharray="50,50"/></g><g><line x1="0" y1="62.5" x2="1489" y2="62.5" fill="none" stroke="#eefffc" stroke-width="5" stroke-opacity="0.3" stroke-dasharray="50,50"/></g><g><line x1="0" y1="268.5" x2="1489.1" y2="268.5" fill="none" stroke="#000" stroke-width="5" stroke-dasharray="50,50"/></g><g><line x1="0" y1="268.5" x2="1489.1" y2="268.5" fill="none" stroke="#eefffc" stroke-width="5" stroke-opacity="0.3" stroke-dasharray="50,50"/></g><g><line x1="0" y1="165.5" x2="1489" y2="165.5" fill="none" stroke="#000" stroke-width="5" stroke-dasharray="50,50"/></g><g><line x1="0" y1="165.5" x2="1489" y2="165.5" fill="none" stroke="#eefffc" stroke-width="5" stroke-opacity="0.3" stroke-dasharray="50,50"/></g></g><g id="em2yhqA1Rwv15_to" transform="translate(-49.957993,270.95)"><g id="em2yhqA1Rwv15_ts" transform="scale(1,1)"><g id="em2yhqA1Rwv15" transform="translate(-104.930011,-53.025001)" opacity="0"><g><path d="M105,6.5c10.4,0,18.9,8.7,18.9,19.3s-8.5,19.3-18.9,19.3-18.9-8.7-18.9-19.3s8.5-19.3,18.9-19.3Zm5.8,9.5c1.9-2,5.3-2,7.3,0s2,5.5,0,7.4L106.2,35.5c-1,1-2.3,1.5-3.6,1.5-1.2,0-2.4-.4-3.3-1.3l-7-6.1c-2.2-1.9-2.4-5.2-.6-7.4s5.2-2.5,7.3-.6l3.4,2.9l4.3-4.4l4.1-4.1Z" clip-rule="evenodd" fill="#74db5a" fill-rule="evenodd"/></g><g><path d="M115.7,21L103.8,33.1c-.6.6-1.7.7-2.3.1l-7-6.1c-.7-.6-.8-1.7-.2-2.5.6-.7,1.7-.8,2.4-.2l4.6,4c.7.6,1.7.5,2.3-.1l9.7-9.9c.6-.7,1.8-.7,2.4,0s.6,1.9,0,2.6Z" fill="#fff"/></g><g><path d="M59.5,59c-1-.4-1.4-1.6-.8-2.5l7.5-12.7l36.3,14.5-7.8,13.2c-.4.7-1.3,1-2.1.7L59.5,59Z" fill="#294d21"/></g><g><path d="M150.5,59L117.4,72.2c-.8.3-1.7,0-2.1-.7l-7.8-13.2l36.3-14.5l7.5,12.7c.6.9.1,2.2-.8,2.5Z" fill="#294d21"/></g><g><path d="M142.8,83.1c0,.7-.4,1.4-1.1,1.6l-35,14v-35l5.6,9.6c1.3,2.2,4,3.1,6.3,2.2l24.2-9.7v17.3Z" fill="#294d21"/></g><g><path d="M103.3,98.7l-35-14c-.7-.3-1.1-.9-1.1-1.6v-17.3l24.2,9.7c2.3.9,5,0,6.3-2.2l5.6-9.6v35Z" fill="#294d21"/></g><g><path d="M86.6,38.7c4,6,10.8,9.9,18.4,9.9s14.4-3.9,18.4-9.9l15.2,3.4L105,55.5L71.4,42.1l15.2-3.4Z" fill="#294d21"/></g><g transform="translate(-.069985 0)"><path d="M146,40.7l8.2,14c1.7,2.7.4,6.5-2.5,7.6l-5.4,2.2v18.6c0,2.2-1.3,4.1-3.3,4.9l-37.4,14.9c-.4.2-.8.2-1.3,0L67,88c-2-.8-3.3-2.7-3.3-4.9v-18.6l-5.4-2.2c-2.9-1.1-4.2-4.9-2.5-7.6l8.2-14c.3-.4.6-.7,1.1-.8l19.7-4.4c-1.4-2.9-2.2-6.2-2.2-9.7C82.6,13.2,92.7,3,105,3s22.4,10.2,22.4,22.8c0,3.5-.8,6.8-2.2,9.7l19.7,4.4c.5.1.9.4,1.1.8ZM123.9,25.8c0-10.6-8.5-19.3-18.9-19.3s-18.9,8.7-18.9,19.3s8.5,19.3,18.9,19.3s18.9-8.7,18.9-19.3ZM105,48.6c-7.6,0-14.4-3.9-18.4-9.9L71.4,42.1L105,55.5l33.6-13.4-15.2-3.4c-4,6-10.8,9.9-18.4,9.9ZM58.7,56.5c-.6.9-.1,2.2.8,2.5L92.6,72.2c.8.3,1.7,0,2.1-.7l7.8-13.2L66.2,43.8L58.7,56.5Zm9.5,28.2l35,14v-35l-5.6,9.6c-1.3,2.2-4,3.1-6.3,2.2L67.1,65.8v17.2c.1.8.5,1.4,1.1,1.7Zm73.6,0c.7-.3,1.1-.9,1.1-1.6v-17.3l-24.2,9.7c-2.3.9-5,0-6.3-2.2l-5.6-9.6v35l35-14ZM117.4,72.2L150.5,59c1-.4,1.4-1.6.8-2.5l-7.5-12.7-36.3,14.5l7.8,13.2c.4.7,1.3,1,2.1.7Z" clip-rule="evenodd" fill="#74db5a" fill-rule="evenodd"/></g><g><path d="M118.1,16c-1.9-2-5.4-2-7.3,0l-4.3,4.4-4.3,4.4-3.4-2.9c-2.1-1.9-5.5-1.6-7.3.6s-1.6,5.5.6,7.4l7,6.1c.9.8,2.1,1.3,3.3,1.3c1.4,0,2.7-.5,3.6-1.5l11.9-12.1c2.2-2.2,2.2-5.7.2-7.7ZM103.8,33.1L115.7,21c.7-.7.7-1.8,0-2.5-.6-.7-1.8-.7-2.4,0l-9.7,9.9c-.6.6-1.6.7-2.3.1l-4.6-4c-.7-.6-1.8-.5-2.4.2s-.5,1.8.2,2.5l7,6.1c.6.5,1.7.4,2.3-.2Z" clip-rule="evenodd" fill="#294d21" fill-rule="evenodd"/></g></g></g></g><g id="em2yhqA1Rwv34_to" transform="translate(-49.957993,62.499999)"><g id="em2yhqA1Rwv34_ts" transform="scale(1,1)"><g id="em2yhqA1Rwv34" transform="translate(-104.930011,-53.025001)" opacity="0"><g><path d="M105,6.5c10.4,0,18.9,8.7,18.9,19.3s-8.5,19.3-18.9,19.3-18.9-8.7-18.9-19.3s8.5-19.3,18.9-19.3Zm5.8,9.5c1.9-2,5.3-2,7.3,0s2,5.5,0,7.4L106.2,35.5c-1,1-2.3,1.5-3.6,1.5-1.2,0-2.4-.4-3.3-1.3l-7-6.1c-2.2-1.9-2.4-5.2-.6-7.4s5.2-2.5,7.3-.6l3.4,2.9l4.3-4.4l4.1-4.1Z" clip-rule="evenodd" fill="#74db5a" fill-rule="evenodd"/></g><g><path d="M115.7,21L103.8,33.1c-.6.6-1.7.7-2.3.1l-7-6.1c-.7-.6-.8-1.7-.2-2.5.6-.7,1.7-.8,2.4-.2l4.6,4c.7.6,1.7.5,2.3-.1l9.7-9.9c.6-.7,1.8-.7,2.4,0s.6,1.9,0,2.6Z" fill="#fff"/></g><g><path d="M59.5,59c-1-.4-1.4-1.6-.8-2.5l7.5-12.7l36.3,14.5-7.8,13.2c-.4.7-1.3,1-2.1.7L59.5,59Z" fill="#294d21"/></g><g><path d="M150.5,59L117.4,72.2c-.8.3-1.7,0-2.1-.7l-7.8-13.2l36.3-14.5l7.5,12.7c.6.9.1,2.2-.8,2.5Z" fill="#294d21"/></g><g><path d="M142.8,83.1c0,.7-.4,1.4-1.1,1.6l-35,14v-35l5.6,9.6c1.3,2.2,4,3.1,6.3,2.2l24.2-9.7v17.3Z" fill="#294d21"/></g><g><path d="M103.3,98.7l-35-14c-.7-.3-1.1-.9-1.1-1.6v-17.3l24.2,9.7c2.3.9,5,0,6.3-2.2l5.6-9.6v35Z" fill="#294d21"/></g><g><path d="M86.6,38.7c4,6,10.8,9.9,18.4,9.9s14.4-3.9,18.4-9.9l15.2,3.4L105,55.5L71.4,42.1l15.2-3.4Z" fill="#294d21"/></g><g transform="translate(-.069985 0)"><path d="M146,40.7l8.2,14c1.7,2.7.4,6.5-2.5,7.6l-5.4,2.2v18.6c0,2.2-1.3,4.1-3.3,4.9l-37.4,14.9c-.4.2-.8.2-1.3,0L67,88c-2-.8-3.3-2.7-3.3-4.9v-18.6l-5.4-2.2c-2.9-1.1-4.2-4.9-2.5-7.6l8.2-14c.3-.4.6-.7,1.1-.8l19.7-4.4c-1.4-2.9-2.2-6.2-2.2-9.7C82.6,13.2,92.7,3,105,3s22.4,10.2,22.4,22.8c0,3.5-.8,6.8-2.2,9.7l19.7,4.4c.5.1.9.4,1.1.8ZM123.9,25.8c0-10.6-8.5-19.3-18.9-19.3s-18.9,8.7-18.9,19.3s8.5,19.3,18.9,19.3s18.9-8.7,18.9-19.3ZM105,48.6c-7.6,0-14.4-3.9-18.4-9.9L71.4,42.1L105,55.5l33.6-13.4-15.2-3.4c-4,6-10.8,9.9-18.4,9.9ZM58.7,56.5c-.6.9-.1,2.2.8,2.5L92.6,72.2c.8.3,1.7,0,2.1-.7l7.8-13.2L66.2,43.8L58.7,56.5Zm9.5,28.2l35,14v-35l-5.6,9.6c-1.3,2.2-4,3.1-6.3,2.2L67.1,65.8v17.2c.1.8.5,1.4,1.1,1.7Zm73.6,0c.7-.3,1.1-.9,1.1-1.6v-17.3l-24.2,9.7c-2.3.9-5,0-6.3-2.2l-5.6-9.6v35l35-14ZM117.4,72.2L150.5,59c1-.4,1.4-1.6.8-2.5l-7.5-12.7-36.3,14.5l7.8,13.2c.4.7,1.3,1,2.1.7Z" clip-rule="evenodd" fill="#74db5a" fill-rule="evenodd"/></g><g><path d="M118.1,16c-1.9-2-5.4-2-7.3,0l-4.3,4.4-4.3,4.4-3.4-2.9c-2.1-1.9-5.5-1.6-7.3.6s-1.6,5.5.6,7.4l7,6.1c.9.8,2.1,1.3,3.3,1.3c1.4,0,2.7-.5,3.6-1.5l11.9-12.1c2.2-2.2,2.2-5.7.2-7.7ZM103.8,33.1L115.7,21c.7-.7.7-1.8,0-2.5-.6-.7-1.8-.7-2.4,0l-9.7,9.9c-.6.6-1.6.7-2.3.1l-4.6-4c-.7-.6-1.8-.5-2.4.2s-.5,1.8.2,2.5l7,6.1c.6.5,1.7.4,2.3-.2Z" clip-rule="evenodd" fill="#294d21" fill-rule="evenodd"/></g></g></g></g><g id="em2yhqA1Rwv53_to" transform="translate(-49.957993,270.95)"><g id="em2yhqA1Rwv53_ts" transform="scale(1,1)"><g id="em2yhqA1Rwv53" transform="translate(-104.930011,-53.025001)" opacity="0"><g><path d="M105,6.5c10.4,0,18.9,8.7,18.9,19.3s-8.5,19.3-18.9,19.3-18.9-8.7-18.9-19.3s8.5-19.3,18.9-19.3Zm5.8,9.5c1.9-2,5.3-2,7.3,0s2,5.5,0,7.4L106.2,35.5c-1,1-2.3,1.5-3.6,1.5-1.2,0-2.4-.4-3.3-1.3l-7-6.1c-2.2-1.9-2.4-5.2-.6-7.4s5.2-2.5,7.3-.6l3.4,2.9l4.3-4.4l4.1-4.1Z" clip-rule="evenodd" fill="#74db5a" fill-rule="evenodd"/></g><g><path d="M115.7,21L103.8,33.1c-.6.6-1.7.7-2.3.1l-7-6.1c-.7-.6-.8-1.7-.2-2.5.6-.7,1.7-.8,2.4-.2l4.6,4c.7.6,1.7.5,2.3-.1l9.7-9.9c.6-.7,1.8-.7,2.4,0s.6,1.9,0,2.6Z" fill="#fff"/></g><g><path d="M59.5,59c-1-.4-1.4-1.6-.8-2.5l7.5-12.7l36.3,14.5-7.8,13.2c-.4.7-1.3,1-2.1.7L59.5,59Z" fill="#294d21"/></g><g><path d="M150.5,59L117.4,72.2c-.8.3-1.7,0-2.1-.7l-7.8-13.2l36.3-14.5l7.5,12.7c.6.9.1,2.2-.8,2.5Z" fill="#294d21"/></g><g><path d="M142.8,83.1c0,.7-.4,1.4-1.1,1.6l-35,14v-35l5.6,9.6c1.3,2.2,4,3.1,6.3,2.2l24.2-9.7v17.3Z" fill="#294d21"/></g><g><path d="M103.3,98.7l-35-14c-.7-.3-1.1-.9-1.1-1.6v-17.3l24.2,9.7c2.3.9,5,0,6.3-2.2l5.6-9.6v35Z" fill="#294d21"/></g><g><path d="M86.6,38.7c4,6,10.8,9.9,18.4,9.9s14.4-3.9,18.4-9.9l15.2,3.4L105,55.5L71.4,42.1l15.2-3.4Z" fill="#294d21"/></g><g transform="translate(-.069985 0)"><path d="M146,40.7l8.2,14c1.7,2.7.4,6.5-2.5,7.6l-5.4,2.2v18.6c0,2.2-1.3,4.1-3.3,4.9l-37.4,14.9c-.4.2-.8.2-1.3,0L67,88c-2-.8-3.3-2.7-3.3-4.9v-18.6l-5.4-2.2c-2.9-1.1-4.2-4.9-2.5-7.6l8.2-14c.3-.4.6-.7,1.1-.8l19.7-4.4c-1.4-2.9-2.2-6.2-2.2-9.7C82.6,13.2,92.7,3,105,3s22.4,10.2,22.4,22.8c0,3.5-.8,6.8-2.2,9.7l19.7,4.4c.5.1.9.4,1.1.8ZM123.9,25.8c0-10.6-8.5-19.3-18.9-19.3s-18.9,8.7-18.9,19.3s8.5,19.3,18.9,19.3s18.9-8.7,18.9-19.3ZM105,48.6c-7.6,0-14.4-3.9-18.4-9.9L71.4,42.1L105,55.5l33.6-13.4-15.2-3.4c-4,6-10.8,9.9-18.4,9.9ZM58.7,56.5c-.6.9-.1,2.2.8,2.5L92.6,72.2c.8.3,1.7,0,2.1-.7l7.8-13.2L66.2,43.8L58.7,56.5Zm9.5,28.2l35,14v-35l-5.6,9.6c-1.3,2.2-4,3.1-6.3,2.2L67.1,65.8v17.2c.1.8.5,1.4,1.1,1.7Zm73.6,0c.7-.3,1.1-.9,1.1-1.6v-17.3l-24.2,9.7c-2.3.9-5,0-6.3-2.2l-5.6-9.6v35l35-14ZM117.4,72.2L150.5,59c1-.4,1.4-1.6.8-2.5l-7.5-12.7-36.3,14.5l7.8,13.2c.4.7,1.3,1,2.1.7Z" clip-rule="evenodd" fill="#74db5a" fill-rule="evenodd"/></g><g><path d="M118.1,16c-1.9-2-5.4-2-7.3,0l-4.3,4.4-4.3,4.4-3.4-2.9c-2.1-1.9-5.5-1.6-7.3.6s-1.6,5.5.6,7.4l7,6.1c.9.8,2.1,1.3,3.3,1.3c1.4,0,2.7-.5,3.6-1.5l11.9-12.1c2.2-2.2,2.2-5.7.2-7.7ZM103.8,33.1L115.7,21c.7-.7.7-1.8,0-2.5-.6-.7-1.8-.7-2.4,0l-9.7,9.9c-.6.6-1.6.7-2.3.1l-4.6-4c-.7-.6-1.8-.5-2.4.2s-.5,1.8.2,2.5l7,6.1c.6.5,1.7.4,2.3-.2Z" clip-rule="evenodd" fill="#294d21" fill-rule="evenodd"/></g></g></g></g><g id="em2yhqA1Rwv72_to" transform="translate(-49.957993,163.03)"><g id="em2yhqA1Rwv72_ts" transform="scale(1,1)"><g id="em2yhqA1Rwv72" transform="translate(-104.930011,-53.025001)" opacity="0"><g><path d="M105,6.5c10.4,0,18.9,8.7,18.9,19.3s-8.5,19.3-18.9,19.3-18.9-8.7-18.9-19.3s8.5-19.3,18.9-19.3Zm5.8,9.5c1.9-2,5.3-2,7.3,0s2,5.5,0,7.4L106.2,35.5c-1,1-2.3,1.5-3.6,1.5-1.2,0-2.4-.4-3.3-1.3l-7-6.1c-2.2-1.9-2.4-5.2-.6-7.4s5.2-2.5,7.3-.6l3.4,2.9l4.3-4.4l4.1-4.1Z" clip-rule="evenodd" fill="#74db5a" fill-rule="evenodd"/></g><g><path d="M115.7,21L103.8,33.1c-.6.6-1.7.7-2.3.1l-7-6.1c-.7-.6-.8-1.7-.2-2.5.6-.7,1.7-.8,2.4-.2l4.6,4c.7.6,1.7.5,2.3-.1l9.7-9.9c.6-.7,1.8-.7,2.4,0s.6,1.9,0,2.6Z" fill="#fff"/></g><g><path d="M59.5,59c-1-.4-1.4-1.6-.8-2.5l7.5-12.7l36.3,14.5-7.8,13.2c-.4.7-1.3,1-2.1.7L59.5,59Z" fill="#294d21"/></g><g><path d="M150.5,59L117.4,72.2c-.8.3-1.7,0-2.1-.7l-7.8-13.2l36.3-14.5l7.5,12.7c.6.9.1,2.2-.8,2.5Z" fill="#294d21"/></g><g><path d="M142.8,83.1c0,.7-.4,1.4-1.1,1.6l-35,14v-35l5.6,9.6c1.3,2.2,4,3.1,6.3,2.2l24.2-9.7v17.3Z" fill="#294d21"/></g><g><path d="M103.3,98.7l-35-14c-.7-.3-1.1-.9-1.1-1.6v-17.3l24.2,9.7c2.3.9,5,0,6.3-2.2l5.6-9.6v35Z" fill="#294d21"/></g><g><path d="M86.6,38.7c4,6,10.8,9.9,18.4,9.9s14.4-3.9,18.4-9.9l15.2,3.4L105,55.5L71.4,42.1l15.2-3.4Z" fill="#294d21"/></g><g transform="translate(-.069985 0)"><path d="M146,40.7l8.2,14c1.7,2.7.4,6.5-2.5,7.6l-5.4,2.2v18.6c0,2.2-1.3,4.1-3.3,4.9l-37.4,14.9c-.4.2-.8.2-1.3,0L67,88c-2-.8-3.3-2.7-3.3-4.9v-18.6l-5.4-2.2c-2.9-1.1-4.2-4.9-2.5-7.6l8.2-14c.3-.4.6-.7,1.1-.8l19.7-4.4c-1.4-2.9-2.2-6.2-2.2-9.7C82.6,13.2,92.7,3,105,3s22.4,10.2,22.4,22.8c0,3.5-.8,6.8-2.2,9.7l19.7,4.4c.5.1.9.4,1.1.8ZM123.9,25.8c0-10.6-8.5-19.3-18.9-19.3s-18.9,8.7-18.9,19.3s8.5,19.3,18.9,19.3s18.9-8.7,18.9-19.3ZM105,48.6c-7.6,0-14.4-3.9-18.4-9.9L71.4,42.1L105,55.5l33.6-13.4-15.2-3.4c-4,6-10.8,9.9-18.4,9.9ZM58.7,56.5c-.6.9-.1,2.2.8,2.5L92.6,72.2c.8.3,1.7,0,2.1-.7l7.8-13.2L66.2,43.8L58.7,56.5Zm9.5,28.2l35,14v-35l-5.6,9.6c-1.3,2.2-4,3.1-6.3,2.2L67.1,65.8v17.2c.1.8.5,1.4,1.1,1.7Zm73.6,0c.7-.3,1.1-.9,1.1-1.6v-17.3l-24.2,9.7c-2.3.9-5,0-6.3-2.2l-5.6-9.6v35l35-14ZM117.4,72.2L150.5,59c1-.4,1.4-1.6.8-2.5l-7.5-12.7-36.3,14.5l7.8,13.2c.4.7,1.3,1,2.1.7Z" clip-rule="evenodd" fill="#74db5a" fill-rule="evenodd"/></g><g><path d="M118.1,16c-1.9-2-5.4-2-7.3,0l-4.3,4.4-4.3,4.4-3.4-2.9c-2.1-1.9-5.5-1.6-7.3.6s-1.6,5.5.6,7.4l7,6.1c.9.8,2.1,1.3,3.3,1.3c1.4,0,2.7-.5,3.6-1.5l11.9-12.1c2.2-2.2,2.2-5.7.2-7.7ZM103.8,33.1L115.7,21c.7-.7.7-1.8,0-2.5-.6-.7-1.8-.7-2.4,0l-9.7,9.9c-.6.6-1.6.7-2.3.1l-4.6-4c-.7-.6-1.8-.5-2.4.2s-.5,1.8.2,2.5l7,6.1c.6.5,1.7.4,2.3-.2Z" clip-rule="evenodd" fill="#294d21" fill-rule="evenodd"/></g></g></g></g><g id="em2yhqA1Rwv91_to" transform="translate(-49.96,62.5)"><g id="em2yhqA1Rwv91_ts" transform="scale(1,1)"><g id="em2yhqA1Rwv91" transform="translate(-104.999996,-163.025001)" opacity="0"><g><path d="M105,116.5c10.4,0,18.9,8.7,18.9,19.3s-8.5,19.3-18.9,19.3-18.9-8.7-18.9-19.3s8.5-19.3,18.9-19.3Zm10.9,15.6l-3.6,3.7l3.6,3.7c1.3,1.4,1.3,3.6,0,5l-2.4,2.5c-1.3,1.4-3.5,1.4-4.9,0l-3.6-3.7-3.6,3.7c-1.3,1.4-3.5,1.4-4.9,0l-2.4-2.5c-1.3-1.4-1.3-3.6,0-5l3.6-3.7-3.6-3.7c-1.3-1.4-1.3-3.6,0-5l2.4-2.5c1.3-1.4,3.5-1.4,4.9,0l3.6,3.7l3.6-3.7c1.3-1.4,3.5-1.4,4.9,0l2.4,2.5c1.4,1.4,1.4,3.6,0,5Z" clip-rule="evenodd" fill="#db5a5a" fill-rule="evenodd"/></g><g><path d="M111.1,144.5l-4.9-5c-.7-.7-1.8-.7-2.4,0l-4.9,5-2.4-2.5l4.9-5c.7-.7.7-1.8,0-2.5l-4.9-5l2.4-2.5l4.9,5c.7.7,1.8.7,2.4,0l4.9-5l2.4,2.5-4.9,5c-.7.7-.7,1.8,0,2.5l4.9,5-2.4,2.5Z" fill="#fff"/></g><g><path d="M146,150.7l8.2,14c1.7,2.7.4,6.5-2.5,7.6l-5.4,2.2v18.6c0,2.2-1.3,4.1-3.3,4.9l-37.4,14.9c-.4.2-.8.2-1.3,0L67,198c-2-.8-3.3-2.7-3.3-4.9v-18.6l-5.4-2.2c-2.9-1.1-4.2-4.9-2.5-7.6l8.2-14c.3-.4.6-.7,1.1-.8l19.7-4.4c-1.4-2.9-2.2-6.2-2.2-9.7c0-12.6,10-22.8,22.4-22.8c12.3,0,22.4,10.2,22.4,22.8c0,3.5-.8,6.8-2.2,9.7l19.7,4.4c.5.1.9.4,1.1.8Zm-22.1-14.9c0-10.6-8.5-19.3-18.9-19.3s-18.9,8.7-18.9,19.3s8.5,19.3,18.9,19.3s18.9-8.7,18.9-19.3ZM105,158.6c-7.6,0-14.4-3.9-18.4-9.9l-15.2,3.4L105,165.5l33.6-13.4-15.2-3.4c-4,6-10.8,9.9-18.4,9.9Zm-46.3,7.9c-.6.9-.1,2.2.8,2.5l33.1,13.2c.8.3,1.7,0,2.1-.7l7.8-13.2-36.3-14.5-7.5,12.7Zm9.5,28.2l35,14v-35l-5.6,9.6c-1.3,2.2-4,3.1-6.3,2.2l-24.2-9.7v17.2c.1.8.5,1.4,1.1,1.7Zm73.6,0c.7-.3,1.1-.9,1.1-1.6v-17.2l-24.2,9.7c-2.3.9-5,0-6.3-2.2l-5.6-9.6v35l35-14.1Zm-24.4-12.5L150.5,169c1-.4,1.4-1.6.8-2.5l-7.5-12.7-36.3,14.5l7.8,13.2c.4.7,1.3,1,2.1.7Z" clip-rule="evenodd" fill="#db5a5a" fill-rule="evenodd"/></g><g><path d="M150.5,169l-33.1,13.2c-.8.3-1.7,0-2.1-.7l-7.8-13.2l36.3-14.5l7.5,12.7c.6.9.1,2.2-.8,2.5Z" fill="#4d2121"/></g><g><path d="M112.3,135.8l3.6-3.7c1.3-1.4,1.3-3.6,0-5l-2.4-2.5c-1.3-1.4-3.5-1.4-4.9,0l-3.6,3.7-3.6-3.7c-1.3-1.4-3.5-1.4-4.9,0l-2.4,2.5c-1.3,1.4-1.3,3.6,0,5l3.6,3.7-3.6,3.7c-1.3,1.4-1.3,3.6,0,5l2.4,2.5c1.3,1.4,3.5,1.4,4.9,0l3.6-3.7l3.6,3.7c1.3,1.4,3.5,1.4,4.9,0l2.4-2.5c1.3-1.4,1.3-3.6,0-5l-3.6-3.7Zm-6.1,3.7l4.9,5l2.4-2.5-4.9-5c-.7-.7-.7-1.8,0-2.5l4.9-5-2.4-2.5-4.9,5c-.7.7-1.8.7-2.4,0l-4.9-5-2.4,2.5l4.9,5c.7.7.7,1.8,0,2.5l-4.9,5l2.4,2.5l4.9-5c.7-.7,1.7-.7,2.4,0Z" clip-rule="evenodd" fill="#4d2121" fill-rule="evenodd"/></g><g><path d="M59.5,169c-1-.4-1.4-1.6-.8-2.5l7.5-12.7l36.3,14.5-7.8,13.2c-.4.7-1.3,1-2.1.7L59.5,169Z" fill="#4d2121"/></g><g><path d="M86.6,148.7c4,6,10.8,9.9,18.4,9.9s14.4-3.9,18.4-9.9l15.2,3.4L105,165.5L71.4,152.1l15.2-3.4Z" fill="#4d2121"/></g><g><path d="M142.8,193.1c0,.7-.4,1.4-1.1,1.6l-35,14v-35l5.6,9.6c1.3,2.2,4,3.1,6.3,2.2l24.2-9.7v17.3Z" fill="#4d2121"/></g><g><path d="M103.3,208.7l-35-14c-.7-.3-1.1-.9-1.1-1.6v-17.2l24.2,9.7c2.3.9,5,0,6.3-2.2l5.6-9.6v34.9Z" fill="#4d2121"/></g></g></g></g><g id="em2yhqA1Rwv110_to" transform="translate(-49.96,163.025002)"><g id="em2yhqA1Rwv110_ts" transform="scale(1,1)"><g id="em2yhqA1Rwv110" transform="translate(-104.999996,-163.025001)" opacity="0"><g><path d="M105,116.5c10.4,0,18.9,8.7,18.9,19.3s-8.5,19.3-18.9,19.3-18.9-8.7-18.9-19.3s8.5-19.3,18.9-19.3Zm10.9,15.6l-3.6,3.7l3.6,3.7c1.3,1.4,1.3,3.6,0,5l-2.4,2.5c-1.3,1.4-3.5,1.4-4.9,0l-3.6-3.7-3.6,3.7c-1.3,1.4-3.5,1.4-4.9,0l-2.4-2.5c-1.3-1.4-1.3-3.6,0-5l3.6-3.7-3.6-3.7c-1.3-1.4-1.3-3.6,0-5l2.4-2.5c1.3-1.4,3.5-1.4,4.9,0l3.6,3.7l3.6-3.7c1.3-1.4,3.5-1.4,4.9,0l2.4,2.5c1.4,1.4,1.4,3.6,0,5Z" clip-rule="evenodd" fill="#db5a5a" fill-rule="evenodd"/></g><g><path d="M111.1,144.5l-4.9-5c-.7-.7-1.8-.7-2.4,0l-4.9,5-2.4-2.5l4.9-5c.7-.7.7-1.8,0-2.5l-4.9-5l2.4-2.5l4.9,5c.7.7,1.8.7,2.4,0l4.9-5l2.4,2.5-4.9,5c-.7.7-.7,1.8,0,2.5l4.9,5-2.4,2.5Z" fill="#fff"/></g><g><path d="M146,150.7l8.2,14c1.7,2.7.4,6.5-2.5,7.6l-5.4,2.2v18.6c0,2.2-1.3,4.1-3.3,4.9l-37.4,14.9c-.4.2-.8.2-1.3,0L67,198c-2-.8-3.3-2.7-3.3-4.9v-18.6l-5.4-2.2c-2.9-1.1-4.2-4.9-2.5-7.6l8.2-14c.3-.4.6-.7,1.1-.8l19.7-4.4c-1.4-2.9-2.2-6.2-2.2-9.7c0-12.6,10-22.8,22.4-22.8c12.3,0,22.4,10.2,22.4,22.8c0,3.5-.8,6.8-2.2,9.7l19.7,4.4c.5.1.9.4,1.1.8Zm-22.1-14.9c0-10.6-8.5-19.3-18.9-19.3s-18.9,8.7-18.9,19.3s8.5,19.3,18.9,19.3s18.9-8.7,18.9-19.3ZM105,158.6c-7.6,0-14.4-3.9-18.4-9.9l-15.2,3.4L105,165.5l33.6-13.4-15.2-3.4c-4,6-10.8,9.9-18.4,9.9Zm-46.3,7.9c-.6.9-.1,2.2.8,2.5l33.1,13.2c.8.3,1.7,0,2.1-.7l7.8-13.2-36.3-14.5-7.5,12.7Zm9.5,28.2l35,14v-35l-5.6,9.6c-1.3,2.2-4,3.1-6.3,2.2l-24.2-9.7v17.2c.1.8.5,1.4,1.1,1.7Zm73.6,0c.7-.3,1.1-.9,1.1-1.6v-17.2l-24.2,9.7c-2.3.9-5,0-6.3-2.2l-5.6-9.6v35l35-14.1Zm-24.4-12.5L150.5,169c1-.4,1.4-1.6.8-2.5l-7.5-12.7-36.3,14.5l7.8,13.2c.4.7,1.3,1,2.1.7Z" clip-rule="evenodd" fill="#db5a5a" fill-rule="evenodd"/></g><g><path d="M150.5,169l-33.1,13.2c-.8.3-1.7,0-2.1-.7l-7.8-13.2l36.3-14.5l7.5,12.7c.6.9.1,2.2-.8,2.5Z" fill="#4d2121"/></g><g><path d="M112.3,135.8l3.6-3.7c1.3-1.4,1.3-3.6,0-5l-2.4-2.5c-1.3-1.4-3.5-1.4-4.9,0l-3.6,3.7-3.6-3.7c-1.3-1.4-3.5-1.4-4.9,0l-2.4,2.5c-1.3,1.4-1.3,3.6,0,5l3.6,3.7-3.6,3.7c-1.3,1.4-1.3,3.6,0,5l2.4,2.5c1.3,1.4,3.5,1.4,4.9,0l3.6-3.7l3.6,3.7c1.3,1.4,3.5,1.4,4.9,0l2.4-2.5c1.3-1.4,1.3-3.6,0-5l-3.6-3.7Zm-6.1,3.7l4.9,5l2.4-2.5-4.9-5c-.7-.7-.7-1.8,0-2.5l4.9-5-2.4-2.5-4.9,5c-.7.7-1.8.7-2.4,0l-4.9-5-2.4,2.5l4.9,5c.7.7.7,1.8,0,2.5l-4.9,5l2.4,2.5l4.9-5c.7-.7,1.7-.7,2.4,0Z" clip-rule="evenodd" fill="#4d2121" fill-rule="evenodd"/></g><g><path d="M59.5,169c-1-.4-1.4-1.6-.8-2.5l7.5-12.7l36.3,14.5-7.8,13.2c-.4.7-1.3,1-2.1.7L59.5,169Z" fill="#4d2121"/></g><g><path d="M86.6,148.7c4,6,10.8,9.9,18.4,9.9s14.4-3.9,18.4-9.9l15.2,3.4L105,165.5L71.4,152.1l15.2-3.4Z" fill="#4d2121"/></g><g><path d="M142.8,193.1c0,.7-.4,1.4-1.1,1.6l-35,14v-35l5.6,9.6c1.3,2.2,4,3.1,6.3,2.2l24.2-9.7v17.3Z" fill="#4d2121"/></g><g><path d="M103.3,208.7l-35-14c-.7-.3-1.1-.9-1.1-1.6v-17.2l24.2,9.7c2.3.9,5,0,6.3-2.2l5.6-9.6v34.9Z" fill="#4d2121"/></g></g></g></g><g id="em2yhqA1Rwv129_to" transform="translate(-49.96,270.95)"><g id="em2yhqA1Rwv129_ts" transform="scale(1,1)"><g id="em2yhqA1Rwv129" transform="translate(-104.999996,-163.025001)" opacity="0"><g><path d="M105,116.5c10.4,0,18.9,8.7,18.9,19.3s-8.5,19.3-18.9,19.3-18.9-8.7-18.9-19.3s8.5-19.3,18.9-19.3Zm10.9,15.6l-3.6,3.7l3.6,3.7c1.3,1.4,1.3,3.6,0,5l-2.4,2.5c-1.3,1.4-3.5,1.4-4.9,0l-3.6-3.7-3.6,3.7c-1.3,1.4-3.5,1.4-4.9,0l-2.4-2.5c-1.3-1.4-1.3-3.6,0-5l3.6-3.7-3.6-3.7c-1.3-1.4-1.3-3.6,0-5l2.4-2.5c1.3-1.4,3.5-1.4,4.9,0l3.6,3.7l3.6-3.7c1.3-1.4,3.5-1.4,4.9,0l2.4,2.5c1.4,1.4,1.4,3.6,0,5Z" clip-rule="evenodd" fill="#db5a5a" fill-rule="evenodd"/></g><g><path d="M111.1,144.5l-4.9-5c-.7-.7-1.8-.7-2.4,0l-4.9,5-2.4-2.5l4.9-5c.7-.7.7-1.8,0-2.5l-4.9-5l2.4-2.5l4.9,5c.7.7,1.8.7,2.4,0l4.9-5l2.4,2.5-4.9,5c-.7.7-.7,1.8,0,2.5l4.9,5-2.4,2.5Z" fill="#fff"/></g><g><path d="M146,150.7l8.2,14c1.7,2.7.4,6.5-2.5,7.6l-5.4,2.2v18.6c0,2.2-1.3,4.1-3.3,4.9l-37.4,14.9c-.4.2-.8.2-1.3,0L67,198c-2-.8-3.3-2.7-3.3-4.9v-18.6l-5.4-2.2c-2.9-1.1-4.2-4.9-2.5-7.6l8.2-14c.3-.4.6-.7,1.1-.8l19.7-4.4c-1.4-2.9-2.2-6.2-2.2-9.7c0-12.6,10-22.8,22.4-22.8c12.3,0,22.4,10.2,22.4,22.8c0,3.5-.8,6.8-2.2,9.7l19.7,4.4c.5.1.9.4,1.1.8Zm-22.1-14.9c0-10.6-8.5-19.3-18.9-19.3s-18.9,8.7-18.9,19.3s8.5,19.3,18.9,19.3s18.9-8.7,18.9-19.3ZM105,158.6c-7.6,0-14.4-3.9-18.4-9.9l-15.2,3.4L105,165.5l33.6-13.4-15.2-3.4c-4,6-10.8,9.9-18.4,9.9Zm-46.3,7.9c-.6.9-.1,2.2.8,2.5l33.1,13.2c.8.3,1.7,0,2.1-.7l7.8-13.2-36.3-14.5-7.5,12.7Zm9.5,28.2l35,14v-35l-5.6,9.6c-1.3,2.2-4,3.1-6.3,2.2l-24.2-9.7v17.2c.1.8.5,1.4,1.1,1.7Zm73.6,0c.7-.3,1.1-.9,1.1-1.6v-17.2l-24.2,9.7c-2.3.9-5,0-6.3-2.2l-5.6-9.6v35l35-14.1Zm-24.4-12.5L150.5,169c1-.4,1.4-1.6.8-2.5l-7.5-12.7-36.3,14.5l7.8,13.2c.4.7,1.3,1,2.1.7Z" clip-rule="evenodd" fill="#db5a5a" fill-rule="evenodd"/></g><g><path d="M150.5,169l-33.1,13.2c-.8.3-1.7,0-2.1-.7l-7.8-13.2l36.3-14.5l7.5,12.7c.6.9.1,2.2-.8,2.5Z" fill="#4d2121"/></g><g><path d="M112.3,135.8l3.6-3.7c1.3-1.4,1.3-3.6,0-5l-2.4-2.5c-1.3-1.4-3.5-1.4-4.9,0l-3.6,3.7-3.6-3.7c-1.3-1.4-3.5-1.4-4.9,0l-2.4,2.5c-1.3,1.4-1.3,3.6,0,5l3.6,3.7-3.6,3.7c-1.3,1.4-1.3,3.6,0,5l2.4,2.5c1.3,1.4,3.5,1.4,4.9,0l3.6-3.7l3.6,3.7c1.3,1.4,3.5,1.4,4.9,0l2.4-2.5c1.3-1.4,1.3-3.6,0-5l-3.6-3.7Zm-6.1,3.7l4.9,5l2.4-2.5-4.9-5c-.7-.7-.7-1.8,0-2.5l4.9-5-2.4-2.5-4.9,5c-.7.7-1.8.7-2.4,0l-4.9-5-2.4,2.5l4.9,5c.7.7.7,1.8,0,2.5l-4.9,5l2.4,2.5l4.9-5c.7-.7,1.7-.7,2.4,0Z" clip-rule="evenodd" fill="#4d2121" fill-rule="evenodd"/></g><g><path d="M59.5,169c-1-.4-1.4-1.6-.8-2.5l7.5-12.7l36.3,14.5-7.8,13.2c-.4.7-1.3,1-2.1.7L59.5,169Z" fill="#4d2121"/></g><g><path d="M86.6,148.7c4,6,10.8,9.9,18.4,9.9s14.4-3.9,18.4-9.9l15.2,3.4L105,165.5L71.4,152.1l15.2-3.4Z" fill="#4d2121"/></g><g><path d="M142.8,193.1c0,.7-.4,1.4-1.1,1.6l-35,14v-35l5.6,9.6c1.3,2.2,4,3.1,6.3,2.2l24.2-9.7v17.3Z" fill="#4d2121"/></g><g><path d="M103.3,208.7l-35-14c-.7-.3-1.1-.9-1.1-1.6v-17.2l24.2,9.7c2.3.9,5,0,6.3-2.2l5.6-9.6v34.9Z" fill="#4d2121"/></g></g></g></g><g transform="translate(.000001 0)"><g><path d="M1049.6,128.7c-7.2-45.8-46.8-80.9-94.6-80.9-18,0-35.2,5-50.2,14.2C882,23.8,841,0,795.5,0C725.1,0,667.9,57.2,667.9,127.6c0,.4,0,.9,0,1.3-45.2,7.6-80.8,47-80.8,94.4c0,52.8,44,95.7,96.8,95.7h351c52.8,0,96.8-42.9,96.8-95.7-.1-47.7-36.3-87.4-82.1-94.6Z" fill="#005f4e"/></g><g><path d="M1044.7,129.5l.6,3.6l3.6.6c43.5,6.8,77.7,44.5,77.7,89.6c0,49.9-41.7,90.7-91.8,90.7h-351c-50.1,0-91.8-40.8-91.8-90.7c0-44.8,33.7-82.2,76.7-89.4l4.3-.7-.2-4.4c0-.3,0-.7,0-1.1C672.8,60,727.9,5,795.5,5c43.8,0,83.2,22.9,105,59.6l2.6,4.4l4.3-2.7c14.2-8.8,30.5-13.5,47.6-13.5c45.3,0,82.9,33.3,89.7,76.7Z" fill="none" stroke="#49ffde" stroke-width="10" stroke-opacity="0.3"/></g><g><path d="M749.4,159v-43.6h28.9v7.6h-19.7v10.4h17.7v7.6h-17.7v18h-9.2Zm47.3.6c-3.3,0-6.2-.7-8.6-2.1s-4.3-3.4-5.6-5.9-2-5.5-2-8.8c0-3.4.7-6.3,2-8.9c1.3-2.5,3.2-4.5,5.6-5.9s5.3-2.1,8.6-2.1s6.2.7,8.6,2.1s4.3,3.4,5.6,5.9s2,5.5,2,8.9-.7,6.3-2,8.8-3.2,4.5-5.6,5.9-5.3,2.1-8.6,2.1Zm.1-7c1.5,0,2.8-.4,3.8-1.3s1.8-2,2.3-3.5.8-3.2.8-5.1-.3-3.6-.8-5.1-1.3-2.7-2.3-3.5c-1-.9-2.3-1.3-3.8-1.3s-2.8.4-3.8,1.3-1.8,2-2.3,3.5-.8,3.2-.8,5.1.3,3.6.8,5.1s1.3,2.7,2.3,3.5c1,.9,2.2,1.3,3.8,1.3Zm28.3-26.3l6,11.4l6.2-11.4h9.3l-9.5,16.4l9.7,16.4h-9.3L831,147.8l-6.3,11.3h-9.4l9.7-16.4-9.4-16.4h9.5Zm40.5,33.3c-3.3,0-6.2-.7-8.6-2.1s-4.3-3.4-5.6-5.9-2-5.5-2-8.8c0-3.4.7-6.3,2-8.9c1.3-2.5,3.2-4.5,5.6-5.9s5.3-2.1,8.6-2.1s6.2.7,8.6,2.1s4.3,3.4,5.6,5.9s2,5.5,2,8.9-.7,6.3-2,8.8-3.2,4.5-5.6,5.9-5.3,2.1-8.6,2.1Zm.1-7c1.5,0,2.8-.4,3.8-1.3s1.8-2,2.3-3.5.8-3.2.8-5.1-.3-3.6-.8-5.1-1.3-2.7-2.3-3.5c-1-.9-2.3-1.3-3.8-1.3s-2.8.4-3.8,1.3-1.8,2-2.3,3.5-.8,3.2-.8,5.1.3,3.6.8,5.1s1.3,2.7,2.3,3.5c1,.9,2.2,1.3,3.8,1.3Zm21.9,6.4v-32.7h8.7v5.8h.4c.7-1.9,1.8-3.4,3.4-4.5s3.5-1.7,5.7-1.7s4.2.6,5.7,1.7c1.6,1.1,2.6,2.6,3.2,4.5h.3c.7-1.9,1.9-3.4,3.6-4.5c1.8-1.1,3.8-1.7,6.2-1.7c3.1,0,5.5,1,7.4,2.9s2.9,4.7,2.9,8.2v22h-9.1v-20.2c0-1.8-.5-3.2-1.4-4.1-1-.9-2.2-1.4-3.6-1.4-1.6,0-2.9.5-3.9,1.6-.9,1-1.4,2.4-1.4,4.1v20h-8.7v-20.4c0-1.6-.5-2.9-1.4-3.8-.9-1-2.1-1.4-3.6-1.4-1,0-1.9.3-2.7.8s-1.4,1.2-1.9,2.1-.7,1.9-.7,3.2v19.5h-9.1Zm59.2,12.3c-1.2,0-2.2-.1-3.2-.3s-1.8-.4-2.5-.7l2-6.8c1.1.3,2,.5,2.9.5s1.6-.2,2.2-.6s1.2-1.2,1.6-2.2l.5-1.4-11.7-33.7h9.5l6.8,24h.3l6.8-24h9.6L959,162.5c-.6,1.8-1.4,3.3-2.5,4.6-1,1.3-2.4,2.3-3.9,3-1.6.8-3.6,1.2-5.8,1.2ZM720.9,232h-9.9l15.1-43.6h11.9L753,232h-9.9l-10.9-33.7h-.3l-11,33.7Zm-.6-17.2h23.4v7.2h-23.4v-7.2Zm46.9-1.7v18.9h-9.1v-32.7h8.7v5.8h.4c.7-1.9,1.9-3.4,3.6-4.5s3.8-1.7,6.2-1.7c2.3,0,4.3.5,5.9,1.5c1.7,1,3,2.4,3.9,4.3.9,1.8,1.4,4,1.4,6.6v20.7h-9.1v-19.2c0-2-.5-3.6-1.5-4.7s-2.5-1.7-4.3-1.7c-1.2,0-2.3.3-3.2.8s-1.6,1.3-2.2,2.3c-.5,1-.7,2.2-.7,3.6Zm45.6-13.8v6.8h-19.7v-6.8h19.7Zm-15.2-7.9h9.1v30.5c0,.8.1,1.5.4,2s.6.8,1.1,1s1,.3,1.6.3c.4,0,.9,0,1.3-.1s.8-.1,1-.2l1.4,6.8c-.5.1-1.1.3-1.9.5s-1.8.3-3,.4c-2.2.1-4.1-.2-5.8-.9-1.6-.7-2.9-1.7-3.8-3.1s-1.4-3.2-1.3-5.3v-31.9h-.1ZM818.7,232v-32.7h9.1v32.7h-9.1Zm4.6-36.9c-1.3,0-2.5-.4-3.5-1.3s-1.4-2-1.4-3.3c0-1.2.5-2.3,1.4-3.2c1-.9,2.1-1.4,3.5-1.4c1.3,0,2.5.5,3.5,1.4s1.4,2,1.4,3.2c0,1.3-.5,2.4-1.4,3.3-1,.8-2.2,1.3-3.5,1.3ZM864.6,232h-15.5v-43.6h15.6c4.4,0,8.2.9,11.3,2.6c3.2,1.7,5.6,4.2,7.3,7.5s2.6,7.1,2.6,11.7c0,4.5-.9,8.5-2.6,11.7-1.7,3.3-4.2,5.8-7.4,7.5-3.1,1.7-6.9,2.6-11.3,2.6Zm-6.2-7.9h5.9c2.7,0,5-.5,6.9-1.4c1.9-1,3.3-2.5,4.2-4.5c1-2.1,1.4-4.7,1.4-8c0-3.2-.5-5.9-1.4-7.9s-2.3-3.6-4.2-4.5c-1.9-1-4.2-1.4-6.9-1.4h-5.9v27.7Zm49.9,7.9h-15.5v-43.6h15.6c4.4,0,8.2.9,11.3,2.6c3.2,1.7,5.6,4.2,7.3,7.5s2.6,7.1,2.6,11.7c0,4.5-.9,8.5-2.6,11.7-1.7,3.3-4.2,5.8-7.4,7.5-3.1,1.7-6.9,2.6-11.3,2.6Zm-6.3-7.9h5.9c2.7,0,5-.5,6.9-1.4c1.9-1,3.3-2.5,4.2-4.5c1-2.1,1.4-4.7,1.4-8c0-3.2-.5-5.9-1.4-7.9s-2.3-3.6-4.2-4.5c-1.9-1-4.2-1.4-6.9-1.4h-5.9v27.7Zm49.1,8.5c-3.3,0-6.2-.7-8.6-2.1s-4.3-3.4-5.6-5.9-2-5.5-2-8.8c0-3.4.7-6.3,2-8.9c1.3-2.5,3.2-4.5,5.6-5.9s5.3-2.1,8.6-2.1s6.2.7,8.6,2.1s4.3,3.4,5.6,5.9s2,5.5,2,8.9-.7,6.3-2,8.8-3.2,4.5-5.6,5.9c-2.5,1.4-5.3,2.1-8.6,2.1Zm0-7c1.5,0,2.8-.4,3.8-1.3s1.8-2,2.3-3.5.8-3.2.8-5.1-.3-3.6-.8-5.1-1.3-2.7-2.3-3.5c-1-.9-2.3-1.3-3.8-1.3s-2.8.4-3.8,1.3-1.8,2-2.3,3.5-.8,3.2-.8,5.1.3,3.6.8,5.1s1.3,2.7,2.3,3.5c1,.9,2.3,1.3,3.8,1.3Zm45.8-24.7c-.2-1.7-.9-3.1-2.2-4-1.3-1-3-1.4-5.3-1.4-1.5,0-2.8.2-3.8.6s-1.8,1-2.4,1.7c-.5.7-.8,1.6-.8,2.5c0,.8.1,1.5.5,2c.4.6.9,1.1,1.5,1.5s1.4.8,2.2,1.1s1.7.6,2.7.8l3.9.9c1.9.4,3.6,1,5.2,1.7s3,1.6,4.1,2.6c1.2,1,2.1,2.3,2.7,3.7.7,1.4,1,3,1,4.8c0,2.7-.7,5-2,6.9s-3.3,3.5-5.8,4.5c-2.5,1.1-5.5,1.6-9.1,1.6-3.5,0-6.6-.5-9.2-1.6s-4.6-2.7-6.1-4.8c-1.4-2.1-2.2-4.8-2.3-7.9h8.9c.1,1.5.5,2.7,1.3,3.7s1.8,1.7,3,2.2c1.3.5,2.7.7,4.3.7s2.9-.2,4.1-.7s2.1-1.1,2.7-1.9s1-1.7,1-2.8c0-1-.3-1.8-.9-2.5s-1.4-1.2-2.5-1.7-2.4-.9-4-1.3l-4.8-1.2c-3.7-.9-6.6-2.3-8.7-4.2s-3.2-4.5-3.2-7.7c0-2.6.7-5,2.1-6.9c1.4-2,3.4-3.5,5.9-4.6s5.3-1.7,8.5-1.7s6.1.6,8.5,1.7s4.3,2.6,5.7,4.6s2.1,4.3,2.1,6.9h-8.8v.2Z" fill="#d2ffef"/></g></g><g id="em2yhqA1Rwv155_ts" transform="translate(641.957938,61.292255) scale(0.661235,0.661235)"><ellipse id="em2yhqA1Rwv155" rx="29.382743" ry="29.382743" transform="translate(0,0)" opacity="0" fill="none" stroke="#db5a5a" stroke-width="6"/></g><g id="em2yhqA1Rwv156_ts" transform="translate(555.302364,164.527515) scale(0.661235,0.661235)"><ellipse id="em2yhqA1Rwv156" rx="29.382743" ry="29.382743" transform="translate(0,0)" opacity="0" fill="none" stroke="#db5a5a" stroke-width="6"/></g><g id="em2yhqA1Rwv157_ts" transform="translate(555.302349,270.3575) scale(0.661235,0.661235)"><ellipse id="em2yhqA1Rwv157" rx="29.382743" ry="29.382743" transform="translate(0,0)" opacity="0" fill="none" stroke="#db5a5a" stroke-width="6"/></g><g><g><path d="M1763.6,17h-247.1c-15.1,0-27.4,12.3-27.4,27.4v41.1c0,15.1,12.3,27.4,27.4,27.4h247.1c15.1,0,27.4-12.3,27.4-27.4v-41.1c0-15.1-12.3-27.4-27.4-27.4ZM1543.9,78.7c0,3.8-3.1,6.9-6.9,6.9s-6.9-3.1-6.9-6.9v-27.4c0-3.8,3.1-6.9,6.9-6.9s6.9,3.1,6.9,6.9v27.4Zm27.5,0c0,3.8-3.1,6.9-6.9,6.9s-6.9-3.1-6.9-6.9v-27.4c0-3.8,3.1-6.9,6.9-6.9s6.9,3.1,6.9,6.9v27.4Zm27.4,0c0,3.8-3.1,6.9-6.9,6.9s-6.9-3.1-6.9-6.9v-27.4c0-3.8,3.1-6.9,6.9-6.9s6.9,3.1,6.9,6.9v27.4Zm96.1,0c-7.6,0-13.7-6.2-13.7-13.7s6.2-13.7,13.7-13.7c7.6,0,13.7,6.2,13.7,13.7c0,7.6-6.1,13.7-13.7,13.7Zm41.2,0c-7.6,0-13.7-6.2-13.7-13.7s6.2-13.7,13.7-13.7c7.6,0,13.7,6.2,13.7,13.7c0,7.6-6.1,13.7-13.7,13.7Z" fill="#005f4e"/></g><g><path d="M1516.4,19.5h247.1c13.8,0,24.9,11.2,24.9,24.9v41.1c0,13.7-11.2,24.9-24.9,24.9h-247.1c-13.8,0-24.9-11.2-24.9-24.9v-41.1c0-13.7,11.2-24.9,24.9-24.9ZM1537,88.1c5.2,0,9.4-4.2,9.4-9.4v-27.4c0-5.2-4.2-9.4-9.4-9.4s-9.4,4.2-9.4,9.4v27.4c.1,5.2,4.3,9.4,9.4,9.4Zm27.5,0c5.2,0,9.4-4.2,9.4-9.4v-27.4c0-5.2-4.2-9.4-9.4-9.4s-9.4,4.2-9.4,9.4v27.4c0,5.2,4.2,9.4,9.4,9.4Zm27.4,0c5.2,0,9.4-4.2,9.4-9.4v-27.4c0-5.2-4.2-9.4-9.4-9.4s-9.4,4.2-9.4,9.4v27.4c.1,5.2,4.3,9.4,9.4,9.4ZM1678.7,65c0,8.9,7.3,16.2,16.2,16.2s16.2-7.3,16.2-16.2-7.3-16.2-16.2-16.2-16.2,7.3-16.2,16.2Zm41.2,0c0,8.9,7.3,16.2,16.2,16.2c9,0,16.2-7.3,16.2-16.2s-7.3-16.2-16.2-16.2c-9,0-16.2,7.3-16.2,16.2Z" fill="none" stroke="#49ffde" stroke-width="5" stroke-opacity="0.3"/></g><g><path d="M1763.6,120h-247.1c-15.1,0-27.4,12.3-27.4,27.4v41.1c0,15.1,12.3,27.4,27.4,27.4h247.1c15.1,0,27.4-12.3,27.4-27.4v-41.1c0-15.1-12.3-27.4-27.4-27.4Zm-219.7,61.7c0,3.8-3.1,6.9-6.9,6.9s-6.9-3.1-6.9-6.9v-27.4c0-3.8,3.1-6.9,6.9-6.9s6.9,3.1,6.9,6.9v27.4Zm27.5,0c0,3.8-3.1,6.9-6.9,6.9s-6.9-3.1-6.9-6.9v-27.4c0-3.8,3.1-6.9,6.9-6.9s6.9,3.1,6.9,6.9v27.4Zm27.4,0c0,3.8-3.1,6.9-6.9,6.9s-6.9-3.1-6.9-6.9v-27.4c0-3.8,3.1-6.9,6.9-6.9s6.9,3.1,6.9,6.9v27.4Zm96.1,0c-7.6,0-13.7-6.2-13.7-13.7s6.2-13.7,13.7-13.7c7.6,0,13.7,6.2,13.7,13.7s-6.1,13.7-13.7,13.7Zm41.2,0c-7.6,0-13.7-6.2-13.7-13.7s6.2-13.7,13.7-13.7c7.6,0,13.7,6.2,13.7,13.7s-6.1,13.7-13.7,13.7Z" fill="#005f4e"/></g><g><path d="M1516.4,122.5h247.1c13.8,0,24.9,11.2,24.9,24.9v41.1c0,13.7-11.2,24.9-24.9,24.9h-247.1c-13.8,0-24.9-11.2-24.9-24.9v-41.1c0-13.7,11.2-24.9,24.9-24.9Zm20.6,68.6c5.2,0,9.4-4.2,9.4-9.4v-27.4c0-5.2-4.2-9.4-9.4-9.4s-9.4,4.2-9.4,9.4v27.4c.1,5.2,4.3,9.4,9.4,9.4Zm27.5,0c5.2,0,9.4-4.2,9.4-9.4v-27.4c0-5.2-4.2-9.4-9.4-9.4s-9.4,4.2-9.4,9.4v27.4c0,5.2,4.2,9.4,9.4,9.4Zm27.4,0c5.2,0,9.4-4.2,9.4-9.4v-27.4c0-5.2-4.2-9.4-9.4-9.4s-9.4,4.2-9.4,9.4v27.4c.1,5.2,4.3,9.4,9.4,9.4Zm86.8-23.1c0,8.9,7.3,16.2,16.2,16.2s16.2-7.3,16.2-16.2-7.3-16.2-16.2-16.2-16.2,7.3-16.2,16.2Zm41.2,0c0,8.9,7.3,16.2,16.2,16.2c9,0,16.2-7.3,16.2-16.2s-7.3-16.2-16.2-16.2c-9,0-16.2,7.3-16.2,16.2Z" fill="none" stroke="#49ffde" stroke-width="5" stroke-opacity="0.3"/></g><g><path d="M1763.6,223h-247.1c-15.1,0-27.4,12.3-27.4,27.4v41.1c0,15.1,12.3,27.4,27.4,27.4h247.1c15.1,0,27.4-12.3,27.4-27.4v-41.1c0-15.1-12.3-27.4-27.4-27.4Zm-219.7,61.7c0,3.8-3.1,6.9-6.9,6.9s-6.9-3.1-6.9-6.9v-27.4c0-3.8,3.1-6.9,6.9-6.9s6.9,3.1,6.9,6.9v27.4Zm27.5,0c0,3.8-3.1,6.9-6.9,6.9s-6.9-3.1-6.9-6.9v-27.4c0-3.8,3.1-6.9,6.9-6.9s6.9,3.1,6.9,6.9v27.4Zm27.4,0c0,3.8-3.1,6.9-6.9,6.9s-6.9-3.1-6.9-6.9v-27.4c0-3.8,3.1-6.9,6.9-6.9s6.9,3.1,6.9,6.9v27.4Zm96.1,0c-7.6,0-13.7-6.2-13.7-13.7s6.2-13.7,13.7-13.7c7.6,0,13.7,6.2,13.7,13.7s-6.1,13.7-13.7,13.7Zm41.2,0c-7.6,0-13.7-6.2-13.7-13.7s6.2-13.7,13.7-13.7c7.6,0,13.7,6.2,13.7,13.7s-6.1,13.7-13.7,13.7Z" fill="#005f4e"/></g><g><path d="M1546.4,257.3v0c0-5.2-4.2-9.4-9.4-9.4s-9.4,4.2-9.4,9.4v27.4c0,5.2,4.2,9.4,9.4,9.4s9.4-4.2,9.4-9.4v-27.4Zm-30-31.8h247.1c13.8,0,24.9,11.2,24.9,24.9v41.1c0,13.7-11.2,24.9-24.9,24.9h-247.1c-13.8,0-24.9-11.2-24.9-24.9v-41.1c0-13.7,11.2-24.9,24.9-24.9Zm48.1,68.6c5.2,0,9.4-4.2,9.4-9.4v-27.4c0-5.2-4.2-9.4-9.4-9.4s-9.4,4.2-9.4,9.4v27.4c0,5.2,4.2,9.4,9.4,9.4Zm27.4,0c5.2,0,9.4-4.2,9.4-9.4v-27.4c0-5.2-4.2-9.4-9.4-9.4s-9.4,4.2-9.4,9.4v27.4c.1,5.2,4.3,9.4,9.4,9.4Zm86.8-23.1c0,8.9,7.3,16.2,16.2,16.2s16.2-7.3,16.2-16.2-7.3-16.2-16.2-16.2-16.2,7.3-16.2,16.2Zm41.2,0c0,8.9,7.3,16.2,16.2,16.2c9,0,16.2-7.3,16.2-16.2s-7.3-16.2-16.2-16.2c-9,0-16.2,7.3-16.2,16.2Z" fill="none" stroke="#49ffde" stroke-width="5" stroke-opacity="0.3"/></g></g></svg>
