<?xml version="1.0" encoding="UTF-8" standalone="no"?>
<!-- Created with Inkscape (http://www.inkscape.org/) -->

<svg
   width="210mm"
   height="210mm"
   viewBox="0 0 210 210"
   version="1.1"
   id="svg5"
   xml:space="preserve"
   inkscape:version="1.2.2 (732a01da63, 2022-12-09)"
   sodipodi:docname="bunlogo.svg"
   xmlns:inkscape="http://www.inkscape.org/namespaces/inkscape"
   xmlns:sodipodi="http://sodipodi.sourceforge.net/DTD/sodipodi-0.dtd"
   xmlns="http://www.w3.org/2000/svg"
   xmlns:svg="http://www.w3.org/2000/svg"><sodipodi:namedview
     id="namedview7"
     pagecolor="#ffffff"
     bordercolor="#000000"
     borderopacity="0.25"
     inkscape:showpageshadow="2"
     inkscape:pageopacity="0.0"
     inkscape:pagecheckerboard="0"
     inkscape:deskcolor="#d1d1d1"
     inkscape:document-units="mm"
     showgrid="false"
     inkscape:zoom="0.914906"
     inkscape:cx="497.31885"
     inkscape:cy="284.1822"
     inkscape:window-width="2560"
     inkscape:window-height="1377"
     inkscape:window-x="-8"
     inkscape:window-y="-8"
     inkscape:window-maximized="1"
     inkscape:current-layer="layer1" /><defs
     id="defs2" /><g
     inkscape:label="Layer 1"
     inkscape:groupmode="layer"
     id="layer1"><path
       style="fill:#000000;stroke-width:1"
       d="M 81.853993,171.67759 C 30.307889,166.18372 9.4081533,98.514094 49.994856,68.523389 l 1.611284,-1.190625 0.31351,-2.513542 C 53.407584,52.889861 57.866617,41.465108 63.009472,36.405343 l 1.315339,-1.294089 0.830871,0.897214 c 2.839132,3.065832 6.590627,10.398334 8.603088,16.815205 l 0.511355,1.630495 1.330367,0.167685 c 0.731702,0.09223 2.438799,0.441859 3.793548,0.776959 l 2.463178,0.609272 0.676981,-1.349118 c 3.064243,-6.106562 12.093072,-13.240278 14.710349,-11.622711 0.967471,6.012439 -2.613302,17.888205 -0.371314,20.341293 1.016622,1.112348 1.968087,2.739244 3.899806,6.668232 4.41135,8.972354 8.67846,12.292505 17.62372,13.712629 4.31235,0.684618 6.57244,2.654231 5.42255,4.72562 -2.94008,5.296172 -9.81571,8.092389 -20.56241,8.362429 -53.107778,1.334478 11.18982,61.284282 11.18982,61.284282 0,0 -81.769708,-48.37033 -20.662226,-51.2417 11.238356,-0.004 21.158796,3.37941 29.051576,9.90884 14.86942,12.30097 34.2895,11.2448 43.65979,-2.37445 3.55395,-5.16547 4.78441,-14.740155 2.473,-19.243271 -1.05905,-2.063257 2.48857,1.485903 4.97337,4.975521 18.97672,26.65071 6.24073,64.10549 -24.1764,71.0994 -2.67408,0.61486 -62.608574,0.98774 -67.911837,0.42251 z M 90.32744,80.231201 c -2.391561,-4.463706 -7.885922,-5.828839 -11.704586,-2.908136 -1.54649,1.182833 -1.539558,1.403689 0.04063,1.294223 2.186004,-0.151437 6.581389,0.476784 8.850712,1.265005 2.63938,0.916757 3.151523,0.980276 2.813248,0.348908 z"
       id="path435"
       sodipodi:nodetypes="sscsscsscsscsccssssccssscssssssss" /></g></svg>
